{"asset":{"generator":"Khronos glTF Spline I/O v0.0.1","version":"2.0"},"scenes":[{"nodes":[0]}],"nodes":[{"name":"","children":[1,2,3,4]},{"name":"Camera","camera":0,"translation":[-112.41455324797401,108.48012666865183,440.61],"rotation":[-2.842170943040401e-17,0,0,1]},{"name":"Directional Light","translation":[200,300,300],"rotation":[-0.4062840720729887,0.12301291902225084,-0.2623788760260691,0.8665785595944042],"extensions":{"KHR_lights_punctual":{"light":0}}},{"name":"Light bulb","matrix":[0.7243883124392897,-0.3720409240561296,-0.06894512056910589,0,0.3783753147640939,0.7122613093917082,0.13199338749441394,0,5.670848161456562e-18,-0.14891502272282356,0.8035736568784029,0,-116.83550593364774,112.86934350537422,8.772733467084878,1],"children":[5,6,7]},{"name":"Personal Camera","camera":1,"translation":[-453.34081079246323,582.9179136198106,-724.735750457329],"rotation":[-0.049534584650197194,-0.9501773737187422,-0.22927997202106148,0.20528024217276078]},{"name":"Sphere 2","matrix":[1.0916349614486902,0,0,0,0,1.0916349614486902,0,0,0,0,1.0916349614486902,0,-1.6913817599128151,-55.33324100286142,-4.505884632284861,1],"mesh":0},{"name":"Cylinder","matrix":[1,0,0,0,0,1.0000000000000016,0,0,0,0,1.0000000000000016,0,-1.323359761847428,-42.94128613606495,-2.505884632284861,1],"mesh":1},{"name":"Sphere","matrix":[1,0,0,0,0,1,0,0,0,0,1,0,0,22.624115039078788,0,1],"mesh":2}],"cameras":[{"type":"orthographic","orthographic":{"xmag":1957,"ymag":885,"zfar":100000,"znear":-100000}},{"type":"orthographic","orthographic":{"xmag":2048,"ymag":1019,"zfar":100000,"znear":-100000}}],"meshes":[{"primitives":[{"attributes":{"POSITION":1,"NORMAL":2,"TEXCOORD_0":3},"indices":0}]},{"primitives":[{"attributes":{"POSITION":5,"NORMAL":6,"TEXCOORD_0":7},"indices":4}]},{"primitives":[{"attributes":{"POSITION":9,"NORMAL":10,"TEXCOORD_0":11},"indices":8}]}],"buffers":[{"uri":"data:application/octet-stream;base64,","byteLength":183584},{"uri":"data:application/octet-stream;base64,","byteLength":67200},{"uri":"data:application/octet-stream;base64,","byteLength":183584}],"bufferViews":[{"buffer":0,"byteOffset":0,"byteLength":48384,"target":34963},{"buffer":0,"byteOffset":48384,"byteLength":50700,"target":34962},{"buffer":0,"byteOffset":99084,"byteLength":50700,"target":34962},{"buffer":0,"byteOffset":149784,"byteLength":33800,"target":34962},{"buffer":1,"byteOffset":0,"byteLength":17280,"target":34963},{"buffer":1,"byteOffset":17280,"byteLength":18720,"target":34962},{"buffer":1,"byteOffset":36000,"byteLength":18720,"target":34962},{"buffer":1,"byteOffset":54720,"byteLength":12480,"target":34962},{"buffer":2,"byteOffset":0,"byteLength":48384,"target":34963},{"buffer":2,"byteOffset":48384,"byteLength":50700,"target":34962},{"buffer":2,"byteOffset":99084,"byteLength":50700,"target":34962},{"buffer":2,"byteOffset":149784,"byteLength":33800,"target":34962}],"accessors":[{"bufferView":0,"byteOffset":0,"componentType":5123,"count":24192,"type":"SCALAR","min":[0],"max":[4224]},{"bufferView":1,"byteOffset":0,"componentType":5126,"count":4225,"type":"VEC3","min":[-25,-25,-25],"max":[25,25,25]},{"bufferView":2,"byteOffset":0,"componentType":5126,"count":4225,"type":"VEC3","min":[-1,-1,-1],"max":[1,1,1]},{"bufferView":3,"byteOffset":0,"componentType":5126,"count":4225,"type":"VEC2","min":[-0.0078125,0],"max":[1.0078125,1]},{"bufferView":4,"byteOffset":0,"componentType":5123,"count":8640,"type":"SCALAR","min":[0],"max":[1558]},{"bufferView":5,"byteOffset":0,"componentType":5126,"count":1560,"type":"VEC3","min":[-35,-18,-35],"max":[35,18,35]},{"bufferView":6,"byteOffset":0,"componentType":5126,"count":1560,"type":"VEC3","min":[-1,-1,-1],"max":[1,1,1]},{"bufferView":7,"byteOffset":0,"componentType":5126,"count":1560,"type":"VEC2","min":[0,0],"max":[1,1]},{"bufferView":8,"byteOffset":0,"componentType":5123,"count":24192,"type":"SCALAR","min":[0],"max":[4224]},{"bufferView":9,"byteOffset":0,"componentType":5126,"count":4225,"type":"VEC3","min":[-60,-60,-60],"max":[60,60,60]},{"bufferView":10,"byteOffset":0,"componentType":5126,"count":4225,"type":"VEC3","min":[-1,-1,-1],"max":[1,1,1]},{"bufferView":11,"byteOffset":0,"componentType":5126,"count":4225,"type":"VEC2","min":[-0.0078125,0],"max":[1.0078125,1]}],"extensions":{"KHR_lights_punctual":{"lights":[{"type":"directional","name":"Directional Light","color":[1,1,1],"intensity":0.7}]}},"extensionsUsed":["KHR_lights_punctual"]}